<?xml version="1.0" encoding="iso-8859-1"?>
<!-- Generator: Adobe Illustrator 19.0.0, SVG Export Plug-In . SVG Version: 6.00 Build 0)  -->
<svg version="1.1" id="Layer_1" xmlns="http://www.w3.org/2000/svg" xmlns:xlink="http://www.w3.org/1999/xlink" x="0px" y="0px"
	 viewBox="0 0 512 512" style="enable-background:new 0 0 512 512;" xml:space="preserve">
<g>
	<g>
		<rect x="230.823" y="403.365" width="109.669" height="15.208"/>
	</g>
</g>
<g>
	<g>
		<path d="M454.853,403.366c-19.639,0-35.948-15.356-37.131-34.959l-10.816-179.33c-0.057-37.883-14.161-74.11-39.726-102.038
			c-23.88-26.087-55.818-42.88-90.549-47.758V0h-42.489v39.28c-34.73,4.879-66.667,21.671-90.549,47.758
			c-25.566,27.928-39.669,64.155-39.726,102.038L93.053,368.407c-1.182,19.603-17.491,34.959-37.131,34.959h-7.604v67.701H207.45
			C211.11,494.23,231.211,512,255.388,512c24.177,0,44.276-17.77,47.937-40.934h159.132v-67.701H454.853z M249.351,15.208h12.073
			v22.705c-0.548-0.022-1.094-0.033-1.64-0.05c-0.363-0.011-0.727-0.025-1.088-0.033c-1.107-0.024-2.211-0.04-3.308-0.04
			c-1.097,0-2.2,0.015-3.308,0.04c-0.362,0.008-0.726,0.022-1.088,0.033c-0.547,0.016-1.092,0.027-1.64,0.05V15.208z
			 M255.388,496.792c-15.764,0-29.006-10.998-32.455-25.726h64.908C284.393,485.794,271.151,496.792,255.388,496.792z
			 M447.25,455.858H303.925H206.85H63.526v-37.285h127.021v-15.208H92.799c8.863-8.782,14.632-20.715,15.435-34.043l10.83-179.555
			l0.014-0.458c0-70.745,53.042-129.082,123.382-135.696c4.337-0.408,8.687-0.614,12.929-0.614s8.591,0.207,12.929,0.614
			c70.34,6.613,123.382,64.951,123.382,135.696v0.229l10.843,179.783c0.803,13.328,6.572,25.262,15.435,34.044h-56.861v15.208
			h86.134V455.858z"/>
	</g>
</g>
<g>
	<g>
		<path d="M299.743,80.216l-6.663,13.67c30.662,14.946,52.229,43.893,57.69,77.434l15.01-2.443
			C359.526,130.468,334.841,97.324,299.743,80.216z"/>
	</g>
</g>
<g>
	<g>
		<path d="M367.347,188.098c-0.004-1.729-0.045-3.483-0.122-5.218l-15.192,0.674c0.07,1.591,0.105,3.198,0.105,4.777l1.232,20.641
			l15.18-0.917L367.347,188.098z"/>
	</g>
</g>
<g>
	<g>
		<rect x="454.856" y="175.611" width="50.156" height="15.208"/>
	</g>
</g>
<g>
	<g>
		<rect x="6.989" y="175.611" width="50.156" height="15.208"/>
	</g>
</g>
<g>
	<g>
		
			<rect x="454.268" y="246.161" transform="matrix(0.3932 -0.9195 0.9195 0.3932 30.8766 589.2651)" width="15.209" height="50.158"/>
	</g>
</g>
<g>
	<g>
		
			<rect x="42.497" y="70.097" transform="matrix(0.3932 -0.9195 0.9195 0.3932 -57.1086 103.8203)" width="15.209" height="50.158"/>
	</g>
</g>
<g>
	<g>
		
			<rect x="25.024" y="263.663" transform="matrix(0.9195 -0.3932 0.3932 0.9195 -102.6224 41.5476)" width="50.158" height="15.209"/>
	</g>
</g>
<g>
	<g>
		<rect x="436.811" y="87.549" transform="matrix(0.9194 -0.3932 0.3932 0.9194 -0.2085 189.288)" width="50.153" height="15.207"/>
	</g>
</g>
<g>
</g>
<g>
</g>
<g>
</g>
<g>
</g>
<g>
</g>
<g>
</g>
<g>
</g>
<g>
</g>
<g>
</g>
<g>
</g>
<g>
</g>
<g>
</g>
<g>
</g>
<g>
</g>
<g>
</g>
</svg>
